<svg xmlns="http://www.w3.org/2000/svg" width="33.75" height="33.91" viewBox="0 0 33.75 33.91">
  <defs>
    <style>
      .cls-1 {
        fill: #f1fbff;
        fill-rule: evenodd;
      }
    </style>
  </defs>
  <path id="Search_and_thou_shall_find_" data-name="Search (and thou shall find)" class="cls-1" d="M945.378,1306.24a8.468,8.468,0,0,1,6.867,13.37l-0.829,1.17-1.166.83a8.314,8.314,0,0,1-4.872,1.57,8.47,8.47,0,0,1,0-16.94m0-4.24a12.71,12.71,0,0,0,0,25.42,12.52,12.52,0,0,0,7.316-2.36l10.154,10.21a2.116,2.116,0,0,0,2.986-3l-10.155-10.21a12.707,12.707,0,0,0-10.3-20.06h0Z" transform="translate(-932.719 -1302)"/>
</svg>
